<?xml version="1.0" encoding="UTF-8"?>
<svg id="Layer_1" data-name="Layer 1" xmlns="http://www.w3.org/2000/svg" viewBox="0 0 537.37 553.05">
  <defs>
    <style>
      .cls-1, .cls-2 {
        stroke-width: 0px;
      }

      .cls-2 {
        fill: #231f20;
      }
    </style>
  </defs>
  <path class="cls-2" d="m295.83,481.77h-54.31V121.06h-51.44l-19.98-49.77h197.15l-18.78,49.77h-52.64v360.7Z"/>
  <g>
    <polygon class="cls-2" points="234.02 268.58 156.77 71.3 71.27 71.3 71.27 481.77 125.59 481.77 125.59 129.13 126.61 129.13 234.02 397.66 234.02 268.58"/>
    <polygon class="cls-2" points="380.56 71.3 303.33 267.67 303.33 397.48 410.25 129.13 411.77 129.13 411.77 481.77 466.08 481.77 466.08 71.3 380.56 71.3"/>
  </g>
  <path class="cls-1" d="m0,0v553.05h537.37V0H0Zm489.86,505.53H47.52V47.52h442.34v458.02Z"/>
</svg>