<?xml version="1.0" encoding="UTF-8"?>
<svg id="Layer_1" data-name="Layer 1" xmlns="http://www.w3.org/2000/svg" viewBox="0 0 497.79 140.69">
  <defs>
    <style>
      .cls-1 {
        letter-spacing: -.04em;
      }

      .cls-2 {
        letter-spacing: 0em;
      }

      .cls-3 {
        letter-spacing: 0em;
      }

      .cls-4, .cls-5, .cls-6 {
        stroke-width: 0px;
      }

      .cls-5, .cls-7 {
        fill: #231f20;
      }

      .cls-6 {
        fill: #ffcb04;
      }

      .cls-7 {
        font-family: MyriadPro-Regular, 'Myriad Pro';
        font-size: 18px;
      }
    </style>
  </defs>
  <path class="cls-5" d="m75.26,122.56h-13.82V30.8h-13.09l-5.08-12.66h50.15l-4.78,12.66h-13.39v91.76Z"/>
  <g>
    <polygon class="cls-5" points="59.53 68.32 39.88 18.14 18.13 18.14 18.13 122.56 31.95 122.56 31.95 32.85 32.21 32.85 59.53 101.16 59.53 68.32"/>
    <polygon class="cls-5" points="96.81 18.14 77.16 68.09 77.16 101.12 104.36 32.85 104.75 32.85 104.75 122.56 118.57 122.56 118.57 18.14 96.81 18.14"/>
  </g>
  <path class="cls-4" d="m0,0v140.69h136.7V0H0Zm124.62,128.6H12.09V12.09h112.53v116.52Z"/>
  <g>
    <path class="cls-5" d="m204.94,59.23h-6.15V23.64h-.17l-14.18,35.59h-3.7l-14.24-35.59h-.11v35.59h-6.15V17.09h9.68l12.64,32.3,12.69-32.3h9.68v42.15Z"/>
    <path class="cls-5" d="m241.56,17.09v28.54c0,4.48-1.42,8.09-4.28,10.82-2.88,2.39-6.16,3.59-9.85,3.59s-6.97-1.2-9.85-3.59c-2.84-2.73-4.28-6.33-4.28-10.82v-28.54h6.15v28.37c0,1.48.21,2.79.62,3.93.43,1.14.93,2.01,1.52,2.62.59.6,1.26,1.1,2.05,1.48.77.38,1.46.62,2.05.74.59.11,1.18.17,1.74.17s1.15-.06,1.74-.17c.59-.11,1.27-.36,2.05-.74.78-.38,1.46-.88,2.05-1.48.59-.61,1.1-1.48,1.52-2.62.42-1.14.62-2.45.62-3.93v-28.37h6.15Z"/>
    <path class="cls-5" d="m279.72,59.23h-6.15v-18.34h-17.36v18.34h-6.15V17.09h6.15v18.17h17.36v-18.17h6.15v42.15Z"/>
    <path class="cls-5" d="m322.21,59.23h-6.56l-4.67-12.41h-15.16l-4.67,12.41h-6.49l16.01-42.15h5.51l16.01,42.15Zm-24.21-18.05h10.88l-5.35-16.12h-.11l-5.42,16.12Z"/>
    <path class="cls-5" d="m371.87,59.23h-6.15V23.64h-.17l-14.18,35.59h-3.7l-14.24-35.59h-.11v35.59h-6.15V17.09h9.68l12.64,32.3,12.69-32.3h9.68v42.15Z"/>
    <path class="cls-5" d="m425.06,59.23h-6.15V23.64h-.17l-14.18,35.59h-3.7l-14.24-35.59h-.11v35.59h-6.15V17.09h9.68l12.64,32.3,12.69-32.3h9.68v42.15Z"/>
    <path class="cls-5" d="m455.71,59.23h-22.73V17.09h22.73v5.65h-16.58v12.41h16.58v5.64h-16.58v12.82h16.58v5.64Z"/>
    <path class="cls-5" d="m462.59,59.23V17.09h13.67c7.71,0,13.44,2.59,17.19,7.76,2.89,4.02,4.34,8.5,4.34,13.43,0,2.85-.5,5.66-1.48,8.43-.99,2.78-2.27,4.93-3.82,6.44-4.09,4.06-9.58,6.09-16.46,6.09h-13.44Zm6.15-36.5v30.86h7.35c1.97,0,3.84-.27,5.58-.8,1.75-.54,3.39-1.36,4.93-2.48,1.54-1.13,2.77-2.72,3.68-4.79s1.37-4.48,1.37-7.27c0-1.7-.28-3.42-.83-5.15-.55-1.73-1.4-3.39-2.54-4.99-1.14-1.59-2.74-2.89-4.84-3.9-2.08-1-4.5-1.51-7.23-1.51h-7.46Z"/>
    <path class="cls-5" d="m171.48,100.55h-4.88v-28.96h-6.42v-4.48h17.71v4.48h-6.42v28.96Z"/>
    <path class="cls-5" d="m207.49,100.55h-5.2l-3.7-9.85h-12.02l-3.7,9.85h-5.15l12.71-33.44h4.37l12.71,33.44Zm-19.21-14.32h8.63l-4.25-12.79h-.09l-4.3,12.79Z"/>
    <path class="cls-5" d="m228.09,100.55h-16.5v-33.44h4.88v28.97h11.62v4.47Z"/>
    <path class="cls-5" d="m255.02,100.55h-4.88v-14.55h-13.77v14.55h-4.88v-33.44h4.88v14.42h13.77v-14.42h4.88v33.44Z"/>
    <path class="cls-5" d="m288.73,100.55h-5.2l-3.7-9.85h-12.02l-3.7,9.85h-5.15l12.71-33.44h4.37l12.71,33.44Zm-19.21-14.32h8.63l-4.25-12.79h-.09l-4.3,12.79Z"/>
    <path class="cls-5" d="m319.73,100.55h-18.03v-33.44h18.03v4.48h-13.15v9.85h13.15v4.47h-13.15v10.17h13.15v4.47Z"/>
    <path class="cls-5" d="m346.39,100.55h-6.1l-8.54-12.47-2.58-.05v-2.97,15.5h-4.88v-33.44h10.35c3.98,0,6.94.93,8.89,2.81,2.05,1.95,3.07,4.59,3.07,7.9,0,1.65-.27,3.14-.81,4.45-.54,1.31-1.19,2.31-1.92,3s-1.58,1.26-2.53,1.72c-.95.45-1.77.74-2.46.87-.7.14-1.31.2-1.86.2l9.35,12.47Zm-17.22-28.96v12.78h3.34c.63,0,1.22-.02,1.76-.05.54-.03,1.31-.17,2.3-.41,1-.23,1.84-.56,2.51-.99.68-.42,1.29-1.08,1.84-1.96.53-.88.81-1.93.81-3.14,0-1.65-.6-3.11-1.81-4.36-1.21-1.24-3.07-1.87-5.6-1.87h-5.15Z"/>
    <path class="cls-5" d="m382,75.52h-5.7c-.52-.57-.97-1.05-1.38-1.42-.4-.38-1-.85-1.81-1.41-.8-.55-1.7-.98-2.7-1.28-1.01-.3-2.09-.46-3.24-.46-3.43,0-6.36,1.28-8.77,3.85-2.4,2.56-3.61,5.6-3.61,9.12s1.25,6.62,3.77,9.09c2.51,2.47,5.4,3.7,8.65,3.7,5.27,0,9-1.57,11.21-4.7l-.1-4.88h-13.1v-4.48l18.03.05v11.38c-.72,1.3-1.73,2.43-3.02,3.39-1.3.96-2.71,1.7-4.25,2.22-1.54.51-3.05.88-4.55,1.13-1.49.24-2.96.36-4.4.36-4.82,0-8.88-1.69-12.17-5.08-3.31-3.38-4.95-7.45-4.95-12.18s1.64-8.96,4.95-12.36c3.3-3.38,7.34-5.08,12.13-5.08,2.97,0,5.83.79,8.55,2.35,2.73,1.57,4.88,3.79,6.45,6.69Z"/>
    <path class="cls-5" d="m411.45,67.11v22.64c0,3.56-1.13,6.42-3.39,8.58-2.28,1.9-4.89,2.85-7.82,2.85s-5.53-.95-7.82-2.85c-2.26-2.17-3.39-5.03-3.39-8.58v-22.64h4.88v22.5c0,1.18.17,2.22.5,3.12.34.9.74,1.59,1.21,2.08.47.48,1,.87,1.62,1.18.61.3,1.16.5,1.62.58s.93.14,1.38.14.91-.05,1.38-.14c.47-.09,1.01-.28,1.62-.58.62-.3,1.16-.7,1.62-1.18.47-.49.87-1.18,1.21-2.08.33-.9.5-1.94.5-3.12v-22.5h4.88Z"/>
    <path class="cls-5" d="m444.76,100.55h-5.06l-16.54-25.85h-.09v25.85h-4.88v-33.44h5.33l16.26,25.44h.1v-25.44h4.88v33.44Z"/>
    <path class="cls-5" d="m469.11,100.55h-18.03v-33.44h18.03v4.48h-13.15v9.85h13.15v4.47h-13.15v10.17h13.15v4.47Z"/>
    <path class="cls-5" d="m487.49,100.55h-4.88v-12.06l-10.39-21.38h5.47l7.36,15.68,7.32-15.68h5.42l-10.3,21.38v12.06Z"/>
  </g>
  <rect class="cls-6" x="160.24" y="114.69" width="144.04" height="2.39"/>
  <text class="cls-7" transform="translate(310.72 122.56)"><tspan x="0" y="0">F</tspan><tspan class="cls-3" x="8.77" y="0">R</tspan><tspan x="18.5" y="0">ONTEND D</tspan><tspan class="cls-2" x="100.19" y="0">E</tspan><tspan x="109.2" y="0">VE</tspan><tspan class="cls-1" x="128.1" y="0">L</tspan><tspan x="135.9" y="0">OPER</tspan></text>
</svg>